<svg width="160" height="34" viewBox="0 0 160 34" fill="none" xmlns="http://www.w3.org/2000/svg">
<g clip-path="url(#clip0_126_87)">
<path d="M0 27.472C0 31.881 6.18 33.024 13.5 33.024C20.781 33.024 27 31.921 27 27.511C27 23.101 20.821 21.959 13.5 21.959C6.219 21.959 0 23.062 0 27.472Z" fill="#435EBE"/>
<path d="M13.5 17.6C18.3601 17.6 22.3 13.6601 22.3 8.8C22.3 3.93989 18.3601 0 13.5 0C8.63991 0 4.70001 3.93989 4.70001 8.8C4.70001 13.6601 8.63991 17.6 13.5 17.6Z" fill="#41BBDD"/>
<path d="M47.192 30.304C46.584 30.304 46.09 30.1647 45.71 29.886C45.3553 29.6073 45.14 29.24 45.064 28.784C44.988 28.3027 45.0767 27.7707 45.33 27.188L55.362 4.958C55.6913 4.22333 56.084 3.704 56.54 3.4C57.0213 3.07066 57.566 2.906 58.174 2.906C58.7567 2.906 59.276 3.07066 59.732 3.4C60.2133 3.704 60.6187 4.22333 60.948 4.958L71.018 27.188C71.2967 27.7707 71.398 28.3027 71.322 28.784C71.246 29.2653 71.0307 29.6453 70.676 29.924C70.3213 30.1773 69.8527 30.304 69.27 30.304C68.5607 30.304 68.0033 30.1393 67.598 29.81C67.218 29.4553 66.876 28.9233 66.572 28.214L64.102 22.476L66.154 23.806H50.118L52.17 22.476L49.738 28.214C49.4087 28.9487 49.0667 29.4807 48.712 29.81C48.3573 30.1393 47.8507 30.304 47.192 30.304ZM58.098 8.492L52.778 21.146L51.79 19.93H64.482L63.532 21.146L58.174 8.492H58.098ZM81.7058 30.38C80.0845 30.38 78.6531 29.9873 77.4118 29.202C76.1958 28.4167 75.2458 27.302 74.5618 25.858C73.8778 24.3887 73.5358 22.666 73.5358 20.69C73.5358 18.6887 73.8778 16.9787 74.5618 15.56C75.2458 14.116 76.1958 13.0013 77.4118 12.216C78.6531 11.4307 80.0845 11.038 81.7058 11.038C83.2511 11.038 84.5938 11.418 85.7338 12.178C86.8991 12.938 87.6845 13.9387 88.0898 15.18H87.6718V5.3C87.6718 4.51466 87.8745 3.91933 88.2798 3.514C88.6851 3.10866 89.2678 2.906 90.0278 2.906C90.7878 2.906 91.3705 3.10866 91.7758 3.514C92.2065 3.91933 92.4218 4.51466 92.4218 5.3V27.872C92.4218 28.6573 92.2191 29.2653 91.8138 29.696C91.4085 30.1013 90.8258 30.304 90.0658 30.304C89.3058 30.304 88.7231 30.1013 88.3178 29.696C87.9125 29.2653 87.7098 28.6573 87.7098 27.872V24.908L88.1278 26.048C87.7478 27.3653 86.9751 28.4167 85.8098 29.202C84.6445 29.9873 83.2765 30.38 81.7058 30.38ZM83.0358 26.77C83.9731 26.77 84.7965 26.542 85.5058 26.086C86.2151 25.63 86.7598 24.9587 87.1398 24.072C87.5451 23.16 87.7478 22.0327 87.7478 20.69C87.7478 18.6633 87.3171 17.156 86.4558 16.168C85.5945 15.1547 84.4545 14.648 83.0358 14.648C82.0985 14.648 81.2751 14.876 80.5658 15.332C79.8565 15.7627 79.2991 16.434 78.8938 17.346C78.5138 18.2327 78.3238 19.3473 78.3238 20.69C78.3238 22.6913 78.7545 24.2113 79.6158 25.25C80.4771 26.2633 81.6171 26.77 83.0358 26.77ZM99.779 30.304C99.019 30.304 98.4363 30.1013 98.031 29.696C97.6256 29.2653 97.423 28.6573 97.423 27.872V13.508C97.423 12.7227 97.6256 12.1273 98.031 11.722C98.4363 11.3167 99.0063 11.114 99.741 11.114C100.476 11.114 101.046 11.3167 101.451 11.722C101.856 12.1273 102.059 12.7227 102.059 13.508V16.282L101.641 15.142C102.148 13.8753 102.933 12.8747 103.997 12.14C105.061 11.4053 106.328 11.038 107.797 11.038C109.292 11.038 110.52 11.3927 111.483 12.102C112.446 12.8113 113.117 13.9007 113.497 15.37H112.965C113.472 14.0273 114.308 12.976 115.473 12.216C116.638 11.4307 117.981 11.038 119.501 11.038C120.92 11.038 122.085 11.3167 122.997 11.874C123.934 12.4313 124.631 13.28 125.087 14.42C125.543 15.5347 125.771 16.9533 125.771 18.676V27.872C125.771 28.6573 125.556 29.2653 125.125 29.696C124.72 30.1013 124.137 30.304 123.377 30.304C122.617 30.304 122.034 30.1013 121.629 29.696C121.224 29.2653 121.021 28.6573 121.021 27.872V18.866C121.021 17.4473 120.78 16.4087 120.299 15.75C119.843 15.0913 119.058 14.762 117.943 14.762C116.702 14.762 115.726 15.2053 115.017 16.092C114.308 16.9533 113.953 18.1567 113.953 19.702V27.872C113.953 28.6573 113.75 29.2653 113.345 29.696C112.94 30.1013 112.357 30.304 111.597 30.304C110.837 30.304 110.242 30.1013 109.811 29.696C109.406 29.2653 109.203 28.6573 109.203 27.872V18.866C109.203 17.4473 108.962 16.4087 108.481 15.75C108.025 15.0913 107.252 14.762 106.163 14.762C104.922 14.762 103.946 15.2053 103.237 16.092C102.528 16.9533 102.173 18.1567 102.173 19.702V27.872C102.173 29.4933 101.375 30.304 99.779 30.304ZM133.027 30.266C132.267 30.266 131.685 30.038 131.279 29.582C130.874 29.126 130.671 28.4927 130.671 27.682V13.736C130.671 12.9 130.874 12.2667 131.279 11.836C131.685 11.38 132.267 11.152 133.027 11.152C133.787 11.152 134.37 11.38 134.775 11.836C135.206 12.2667 135.421 12.9 135.421 13.736V27.682C135.421 28.4927 135.219 29.126 134.813 29.582C134.408 30.038 133.813 30.266 133.027 30.266ZM133.027 7.618C132.141 7.618 131.444 7.40267 130.937 6.972C130.456 6.516 130.215 5.89533 130.215 5.11C130.215 4.29933 130.456 3.67867 130.937 3.248C131.444 2.81733 132.141 2.602 133.027 2.602C133.939 2.602 134.636 2.81733 135.117 3.248C135.599 3.67867 135.839 4.29933 135.839 5.11C135.839 5.89533 135.599 6.516 135.117 6.972C134.636 7.40267 133.939 7.618 133.027 7.618ZM142.713 30.304C141.953 30.304 141.37 30.1013 140.965 29.696C140.559 29.2653 140.357 28.6573 140.357 27.872V13.508C140.357 12.7227 140.559 12.1273 140.965 11.722C141.37 11.3167 141.94 11.114 142.675 11.114C143.409 11.114 143.979 11.3167 144.385 11.722C144.79 12.1273 144.993 12.7227 144.993 13.508V16.092L144.575 15.142C145.132 13.7993 145.993 12.786 147.159 12.102C148.349 11.3927 149.692 11.038 151.187 11.038C152.681 11.038 153.91 11.3167 154.873 11.874C155.835 12.4313 156.557 13.28 157.039 14.42C157.52 15.5347 157.761 16.9533 157.761 18.676V27.872C157.761 28.6573 157.558 29.2653 157.153 29.696C156.747 30.1013 156.165 30.304 155.405 30.304C154.645 30.304 154.049 30.1013 153.619 29.696C153.213 29.2653 153.011 28.6573 153.011 27.872V18.904C153.011 17.46 152.732 16.4087 152.175 15.75C151.643 15.0913 150.807 14.762 149.667 14.762C148.273 14.762 147.159 15.2053 146.323 16.092C145.512 16.9533 145.107 18.106 145.107 19.55V27.872C145.107 29.4933 144.309 30.304 142.713 30.304Z" fill="#435EBE"/>
</g>
<defs>
<clipPath id="clip0_126_87">
<rect width="160" height="34" fill="white"/>
</clipPath>
</defs>
</svg>
