<svg width="400" height="38" viewBox="0 0 400 38" fill="none" xmlns="http://www.w3.org/2000/svg">
<g clip-path="url(#clip0_126_91)">
<path d="M2.706 30.304C1.99667 30.304 1.452 30.1013 1.072 29.696C0.692 29.2907 0.502 28.7333 0.502 28.024V5.186C0.502 4.45133 0.704667 3.894 1.11 3.514C1.51533 3.10866 2.07267 2.906 2.782 2.906C3.41533 2.906 3.90933 3.03267 4.264 3.286C4.644 3.514 4.986 3.91933 5.29 4.502L14.676 21.868H13.46L22.846 4.502C23.15 3.91933 23.4793 3.514 23.834 3.286C24.1887 3.03267 24.6827 2.906 25.316 2.906C26.0253 2.906 26.57 3.10866 26.95 3.514C27.33 3.894 27.52 4.45133 27.52 5.186V28.024C27.52 28.7333 27.33 29.2907 26.95 29.696C26.5953 30.1013 26.0507 30.304 25.316 30.304C24.6067 30.304 24.062 30.1013 23.682 29.696C23.302 29.2907 23.112 28.7333 23.112 28.024V10.43H23.948L15.968 24.984C15.7147 25.4147 15.4487 25.7313 15.17 25.934C14.8913 26.1367 14.5113 26.238 14.03 26.238C13.5487 26.238 13.156 26.1367 12.852 25.934C12.548 25.706 12.282 25.3893 12.054 24.984L3.998 10.392H4.91V28.024C4.91 28.7333 4.72 29.2907 4.34 29.696C3.98533 30.1013 3.44067 30.304 2.706 30.304ZM35.8482 30.304C35.0629 30.304 34.4549 30.0887 34.0242 29.658C33.6189 29.202 33.4162 28.5813 33.4162 27.796V5.414C33.4162 4.60333 33.6189 3.98267 34.0242 3.552C34.4549 3.12133 35.0629 2.906 35.8482 2.906C36.6336 2.906 37.2289 3.12133 37.6342 3.552C38.0649 3.98267 38.2802 4.60333 38.2802 5.414V27.796C38.2802 28.5813 38.0776 29.202 37.6722 29.658C37.2669 30.0887 36.6589 30.304 35.8482 30.304ZM76.7253 34.294C77.0799 34.8513 77.2193 35.358 77.1433 35.814C77.0673 36.27 76.8646 36.65 76.5353 36.954C76.2059 37.2833 75.8006 37.486 75.3193 37.562C74.8379 37.6633 74.3566 37.6127 73.8752 37.41C73.3939 37.2327 72.9886 36.878 72.6593 36.346L70.0373 32.128C69.6826 31.5453 69.2013 31.102 68.5933 30.798C68.0106 30.5193 67.2886 30.38 66.4273 30.38L70.1893 28.898C71.3799 28.898 72.3299 29.1133 73.0393 29.544C73.7486 29.9493 74.4326 30.6713 75.0913 31.71L76.7253 34.294ZM66.4653 30.38C63.8813 30.38 61.6139 29.81 59.6633 28.67C57.7379 27.53 56.2433 25.934 55.1793 23.882C54.1153 21.8047 53.5833 19.3727 53.5833 16.586C53.5833 14.4833 53.8873 12.596 54.4953 10.924C55.1033 9.22667 55.9646 7.78267 57.0793 6.592C58.2193 5.376 59.5746 4.45133 61.1453 3.818C62.7413 3.15933 64.5146 2.83 66.4653 2.83C69.0746 2.83 71.3419 3.4 73.2673 4.54C75.1926 5.65467 76.6873 7.238 77.7513 9.29C78.8153 11.342 79.3473 13.7613 79.3473 16.548C79.3473 18.6507 79.0433 20.5507 78.4353 22.248C77.8273 23.9453 76.9533 25.402 75.8133 26.618C74.6986 27.834 73.3433 28.7713 71.7473 29.43C70.1766 30.0633 68.4159 30.38 66.4653 30.38ZM66.4653 26.2C68.1119 26.2 69.5053 25.82 70.6453 25.06C71.8106 24.3 72.6973 23.198 73.3053 21.754C73.9386 20.31 74.2553 18.5873 74.2553 16.586C74.2553 13.546 73.5713 11.19 72.2033 9.518C70.8606 7.846 68.9479 7.01 66.4653 7.01C64.8439 7.01 63.4506 7.39 62.2853 8.15C61.1199 8.88467 60.2206 9.974 59.5873 11.418C58.9793 12.8367 58.6753 14.5593 58.6753 16.586C58.6753 19.6007 59.3593 21.9567 60.7273 23.654C62.0953 25.3513 64.0079 26.2 66.4653 26.2ZM95.4272 30.38C93.5779 30.38 91.9439 30.1393 90.5252 29.658C89.1319 29.1767 87.9539 28.4673 86.9912 27.53C86.0285 26.5673 85.3065 25.3767 84.8252 23.958C84.3439 22.5393 84.1032 20.8927 84.1032 19.018V5.376C84.1032 4.54 84.3059 3.91933 84.7112 3.514C85.1419 3.10866 85.7499 2.906 86.5352 2.906C87.3205 2.906 87.9159 3.10866 88.3212 3.514C88.7519 3.91933 88.9672 4.54 88.9672 5.376V18.98C88.9672 21.3867 89.5119 23.198 90.6012 24.414C91.7159 25.6047 93.3245 26.2 95.4272 26.2C97.5299 26.2 99.1259 25.6047 100.215 24.414C101.305 23.198 101.849 21.3867 101.849 18.98V5.376C101.849 4.54 102.052 3.91933 102.457 3.514C102.888 3.10866 103.496 2.906 104.281 2.906C105.041 2.906 105.624 3.10866 106.029 3.514C106.46 3.91933 106.675 4.54 106.675 5.376V19.018C106.675 21.5007 106.245 23.5907 105.383 25.288C104.547 26.9853 103.293 28.2647 101.621 29.126C99.9492 29.962 97.8845 30.38 95.4272 30.38ZM114.78 30.304C113.995 30.304 113.387 30.0887 112.956 29.658C112.551 29.202 112.348 28.5813 112.348 27.796V5.68C112.348 4.86933 112.563 4.26133 112.994 3.856C113.425 3.42533 114.033 3.21 114.818 3.21H123.976C126.915 3.21 129.182 3.91933 130.778 5.338C132.374 6.73133 133.172 8.69467 133.172 11.228C133.172 12.8747 132.805 14.2933 132.07 15.484C131.361 16.6747 130.322 17.5867 128.954 18.22C127.586 18.8533 125.927 19.17 123.976 19.17L124.318 18.6H125.572C126.611 18.6 127.51 18.8533 128.27 19.36C129.055 19.8667 129.739 20.6647 130.322 21.754L133.172 27.036C133.476 27.568 133.615 28.0873 133.59 28.594C133.565 29.1007 133.375 29.5187 133.02 29.848C132.665 30.152 132.146 30.304 131.462 30.304C130.778 30.304 130.221 30.1647 129.79 29.886C129.359 29.582 128.979 29.126 128.65 28.518L124.812 21.45C124.356 20.5887 123.811 20.0187 123.178 19.74C122.57 19.436 121.785 19.284 120.822 19.284H117.212V27.796C117.212 28.5813 117.009 29.202 116.604 29.658C116.199 30.0887 115.591 30.304 114.78 30.304ZM117.212 15.674H123.14C124.888 15.674 126.205 15.3193 127.092 14.61C128.004 13.8753 128.46 12.786 128.46 11.342C128.46 9.92333 128.004 8.85933 127.092 8.15C126.205 7.41533 124.888 7.048 123.14 7.048H117.212V15.674ZM140.831 30.304C140.045 30.304 139.437 30.0887 139.007 29.658C138.601 29.202 138.399 28.5813 138.399 27.796V5.68C138.399 4.86933 138.614 4.26133 139.045 3.856C139.475 3.42533 140.083 3.21 140.869 3.21H150.027C152.965 3.21 155.233 3.91933 156.829 5.338C158.425 6.73133 159.223 8.69467 159.223 11.228C159.223 12.8747 158.855 14.2933 158.121 15.484C157.411 16.6747 156.373 17.5867 155.005 18.22C153.637 18.8533 151.977 19.17 150.027 19.17L150.369 18.6H151.623C152.661 18.6 153.561 18.8533 154.321 19.36C155.106 19.8667 155.79 20.6647 156.373 21.754L159.223 27.036C159.527 27.568 159.666 28.0873 159.641 28.594C159.615 29.1007 159.425 29.5187 159.071 29.848C158.716 30.152 158.197 30.304 157.513 30.304C156.829 30.304 156.271 30.1647 155.841 29.886C155.41 29.582 155.03 29.126 154.701 28.518L150.863 21.45C150.407 20.5887 149.862 20.0187 149.229 19.74C148.621 19.436 147.835 19.284 146.873 19.284H143.263V27.796C143.263 28.5813 143.06 29.202 142.655 29.658C142.249 30.0887 141.641 30.304 140.831 30.304ZM143.263 15.674H149.191C150.939 15.674 152.256 15.3193 153.143 14.61C154.055 13.8753 154.511 12.786 154.511 11.342C154.511 9.92333 154.055 8.85933 153.143 8.15C152.256 7.41533 150.939 7.048 149.191 7.048H143.263V15.674ZM176.272 30.38C173.688 30.38 171.421 29.81 169.47 28.67C167.545 27.53 166.05 25.934 164.986 23.882C163.922 21.8047 163.39 19.3727 163.39 16.586C163.39 14.4833 163.694 12.596 164.302 10.924C164.91 9.22667 165.771 7.78267 166.886 6.592C168.026 5.376 169.381 4.45133 170.952 3.818C172.548 3.15933 174.321 2.83 176.272 2.83C178.881 2.83 181.149 3.4 183.074 4.54C184.999 5.65467 186.494 7.238 187.558 9.29C188.622 11.342 189.154 13.7613 189.154 16.548C189.154 18.6507 188.85 20.5507 188.242 22.248C187.634 23.9453 186.76 25.402 185.62 26.618C184.505 27.834 183.15 28.7713 181.554 29.43C179.983 30.0633 178.223 30.38 176.272 30.38ZM176.272 26.2C177.919 26.2 179.312 25.82 180.452 25.06C181.617 24.3 182.504 23.198 183.112 21.754C183.745 20.31 184.062 18.5873 184.062 16.586C184.062 13.546 183.378 11.19 182.01 9.518C180.667 7.846 178.755 7.01 176.272 7.01C174.651 7.01 173.257 7.39 172.092 8.15C170.927 8.88467 170.027 9.974 169.394 11.418C168.786 12.8367 168.482 14.5593 168.482 16.586C168.482 19.6007 169.166 21.9567 170.534 23.654C171.902 25.3513 173.815 26.2 176.272 26.2ZM201.359 30.304C200.574 30.304 199.966 30.0887 199.535 29.658C199.13 29.202 198.927 28.5813 198.927 27.796V7.276H191.517C190.858 7.276 190.339 7.09866 189.959 6.744C189.604 6.364 189.427 5.85733 189.427 5.224C189.427 4.56533 189.604 4.07133 189.959 3.742C190.339 3.38733 190.858 3.21 191.517 3.21H211.201C211.86 3.21 212.366 3.38733 212.721 3.742C213.101 4.07133 213.291 4.56533 213.291 5.224C213.291 5.85733 213.101 6.364 212.721 6.744C212.366 7.09866 211.86 7.276 211.201 7.276H203.791V27.796C203.791 28.5813 203.588 29.202 203.183 29.658C202.778 30.0887 202.17 30.304 201.359 30.304ZM213.366 30.304C212.758 30.304 212.264 30.1647 211.884 29.886C211.529 29.6073 211.314 29.24 211.238 28.784C211.162 28.3027 211.25 27.7707 211.504 27.188L221.536 4.958C221.865 4.22333 222.258 3.704 222.714 3.4C223.195 3.07066 223.74 2.906 224.348 2.906C224.93 2.906 225.45 3.07066 225.906 3.4C226.387 3.704 226.792 4.22333 227.122 4.958L237.192 27.188C237.47 27.7707 237.572 28.3027 237.496 28.784C237.42 29.2653 237.204 29.6453 236.85 29.924C236.495 30.1773 236.026 30.304 235.444 30.304C234.734 30.304 234.177 30.1393 233.772 29.81C233.392 29.4553 233.05 28.9233 232.746 28.214L230.276 22.476L232.328 23.806H216.292L218.344 22.476L215.912 28.214C215.582 28.9487 215.24 29.4807 214.886 29.81C214.531 30.1393 214.024 30.304 213.366 30.304ZM224.272 8.492L218.952 21.146L217.964 19.93H230.656L229.706 21.146L224.348 8.492H224.272ZM251.96 30.304C251.352 30.304 250.858 30.1647 250.478 29.886C250.123 29.6073 249.908 29.24 249.832 28.784C249.756 28.3027 249.844 27.7707 250.098 27.188L260.13 4.958C260.459 4.22333 260.852 3.704 261.308 3.4C261.789 3.07066 262.334 2.906 262.942 2.906C263.524 2.906 264.044 3.07066 264.5 3.4C264.981 3.704 265.386 4.22333 265.716 4.958L275.786 27.188C276.064 27.7707 276.166 28.3027 276.09 28.784C276.014 29.2653 275.798 29.6453 275.444 29.924C275.089 30.1773 274.62 30.304 274.038 30.304C273.328 30.304 272.771 30.1393 272.366 29.81C271.986 29.4553 271.644 28.9233 271.34 28.214L268.87 22.476L270.922 23.806H254.886L256.938 22.476L254.506 28.214C254.176 28.9487 253.834 29.4807 253.48 29.81C253.125 30.1393 252.618 30.304 251.96 30.304ZM262.866 8.492L257.546 21.146L256.558 19.93H269.25L268.3 21.146L262.942 8.492H262.866ZM280.213 12.52C279.884 12.9253 279.529 13.1533 279.149 13.204C278.795 13.2547 278.478 13.1913 278.199 13.014C277.921 12.8113 277.769 12.5327 277.743 12.178C277.718 11.798 277.883 11.3927 278.237 10.962C278.744 10.3287 279.086 9.69533 279.263 9.062C279.441 8.42867 279.529 7.87133 279.529 7.39L279.719 8.644C278.833 8.644 278.111 8.39067 277.553 7.884C277.021 7.37733 276.755 6.69333 276.755 5.832C276.755 4.996 277.009 4.32467 277.515 3.818C278.022 3.286 278.706 3.02 279.567 3.02C280.454 3.02 281.151 3.324 281.657 3.932C282.164 4.51466 282.417 5.36333 282.417 6.478C282.417 7.086 282.354 7.71933 282.227 8.378C282.126 9.01133 281.911 9.68267 281.581 10.392C281.277 11.076 280.821 11.7853 280.213 12.52ZM296.394 30.304C295.609 30.304 295.001 30.0887 294.57 29.658C294.165 29.202 293.962 28.5687 293.962 27.758V16.206L294.988 19.132L285.83 6.25C285.501 5.794 285.349 5.31267 285.374 4.806C285.425 4.274 285.64 3.83067 286.02 3.476C286.4 3.096 286.932 2.906 287.616 2.906C288.123 2.906 288.579 3.03267 288.984 3.286C289.415 3.53933 289.82 3.932 290.2 4.464L297.002 14.116H295.938L302.778 4.464C303.184 3.90667 303.576 3.514 303.956 3.286C304.336 3.03267 304.805 2.906 305.362 2.906C306.021 2.906 306.528 3.08333 306.882 3.438C307.262 3.76733 307.452 4.18533 307.452 4.692C307.478 5.19867 307.3 5.73067 306.92 6.288L297.838 19.132L298.826 16.206V27.758C298.826 29.4553 298.016 30.304 296.394 30.304ZM322.203 30.38C320.353 30.38 318.719 30.1393 317.301 29.658C315.907 29.1767 314.729 28.4673 313.767 27.53C312.804 26.5673 312.082 25.3767 311.601 23.958C311.119 22.5393 310.879 20.8927 310.879 19.018V5.376C310.879 4.54 311.081 3.91933 311.487 3.514C311.917 3.10866 312.525 2.906 313.311 2.906C314.096 2.906 314.691 3.10866 315.097 3.514C315.527 3.91933 315.743 4.54 315.743 5.376V18.98C315.743 21.3867 316.287 23.198 317.377 24.414C318.491 25.6047 320.1 26.2 322.203 26.2C324.305 26.2 325.901 25.6047 326.991 24.414C328.08 23.198 328.625 21.3867 328.625 18.98V5.376C328.625 4.54 328.827 3.91933 329.233 3.514C329.663 3.10866 330.271 2.906 331.057 2.906C331.817 2.906 332.399 3.10866 332.805 3.514C333.235 3.91933 333.451 4.54 333.451 5.376V19.018C333.451 21.5007 333.02 23.5907 332.159 25.288C331.323 26.9853 330.069 28.2647 328.397 29.126C326.725 29.962 324.66 30.38 322.203 30.38ZM341.403 30.304C340.669 30.304 340.099 30.1013 339.693 29.696C339.313 29.2907 339.123 28.708 339.123 27.948V5.338C339.123 4.55267 339.313 3.95733 339.693 3.552C340.099 3.12133 340.618 2.906 341.251 2.906C341.834 2.906 342.265 3.02 342.543 3.248C342.847 3.45066 343.202 3.80533 343.607 4.312L358.161 23.198H357.173V5.224C357.173 4.48933 357.363 3.91933 357.743 3.514C358.149 3.10866 358.719 2.906 359.453 2.906C360.188 2.906 360.745 3.10866 361.125 3.514C361.505 3.91933 361.695 4.48933 361.695 5.224V28.024C361.695 28.7333 361.518 29.2907 361.163 29.696C360.809 30.1013 360.327 30.304 359.719 30.304C359.137 30.304 358.668 30.19 358.313 29.962C357.984 29.734 357.617 29.3667 357.211 28.86L342.695 9.974H343.645V27.948C343.645 28.708 343.455 29.2907 343.075 29.696C342.695 30.1013 342.138 30.304 341.403 30.304Z" fill="#435EBE"/>
</g>
<defs>
<clipPath id="clip0_126_91">
<rect width="400" height="38" fill="white"/>
</clipPath>
</defs>
</svg>
