<svg width="160" height="34" viewBox="0 0 160 34" fill="none" xmlns="http://www.w3.org/2000/svg">
<g clip-path="url(#clip0_126_95)">
<path d="M0 27.472C0 31.881 6.18 33.024 13.5 33.024C20.781 33.024 27 31.921 27 27.511C27 23.101 20.821 21.959 13.5 21.959C6.219 21.959 0 23.062 0 27.472Z" fill="#435EBE"/>
<path d="M13.5 17.6C18.3601 17.6 22.3 13.6601 22.3 8.8C22.3 3.93989 18.3601 0 13.5 0C8.63991 0 4.70001 3.93989 4.70001 8.8C4.70001 13.6601 8.63991 17.6 13.5 17.6Z" fill="#41BBDD"/>
<path d="M56.16 30.38C55.0453 30.38 53.9307 30.2913 52.816 30.114C51.7013 29.962 50.65 29.7213 49.662 29.392C48.674 29.0373 47.7873 28.6067 47.002 28.1C46.546 27.796 46.2293 27.4287 46.052 26.998C45.8747 26.5673 45.8113 26.1493 45.862 25.744C45.938 25.3133 46.1027 24.946 46.356 24.642C46.6347 24.3127 46.9767 24.11 47.382 24.034C47.7873 23.958 48.2307 24.072 48.712 24.376C49.8267 25.0347 51.0047 25.516 52.246 25.82C53.4873 26.124 54.792 26.276 56.16 26.276C58.1613 26.276 59.618 25.9467 60.53 25.288C61.442 24.604 61.898 23.73 61.898 22.666C61.898 21.7793 61.5687 21.0827 60.91 20.576C60.2767 20.0693 59.1747 19.6513 57.604 19.322L53.424 18.448C51.0173 17.9413 49.2187 17.0927 48.028 15.902C46.8627 14.686 46.28 13.09 46.28 11.114C46.28 9.87267 46.5333 8.74533 47.04 7.732C47.5467 6.71867 48.256 5.84467 49.168 5.11C50.1053 4.37533 51.2073 3.818 52.474 3.438C53.766 3.03267 55.1847 2.83 56.73 2.83C58.25 2.83 59.694 3.02 61.062 3.4C62.43 3.78 63.6587 4.33733 64.748 5.072C65.1533 5.35067 65.4193 5.69267 65.546 6.098C65.698 6.50333 65.736 6.90867 65.66 7.314C65.584 7.694 65.4067 8.02333 65.128 8.302C64.8493 8.58067 64.4947 8.74533 64.064 8.796C63.6587 8.84666 63.19 8.72 62.658 8.416C61.7207 7.884 60.7707 7.504 59.808 7.276C58.8453 7.048 57.8067 6.934 56.692 6.934C55.5267 6.934 54.526 7.09866 53.69 7.428C52.854 7.75733 52.208 8.226 51.752 8.834C51.3213 9.41667 51.106 10.1133 51.106 10.924C51.106 11.836 51.41 12.5707 52.018 13.128C52.626 13.66 53.6647 14.078 55.134 14.382L59.276 15.256C61.784 15.788 63.646 16.624 64.862 17.764C66.1033 18.904 66.724 20.424 66.724 22.324C66.724 23.54 66.4707 24.642 65.964 25.63C65.4827 26.618 64.7733 27.4667 63.836 28.176C62.924 28.8853 61.822 29.43 60.53 29.81C59.238 30.19 57.7813 30.38 56.16 30.38ZM72.7987 30.266C72.0387 30.266 71.456 30.038 71.0507 29.582C70.6453 29.126 70.4427 28.4927 70.4427 27.682V13.736C70.4427 12.9 70.6453 12.2667 71.0507 11.836C71.456 11.38 72.0387 11.152 72.7987 11.152C73.5587 11.152 74.1413 11.38 74.5467 11.836C74.9773 12.2667 75.1927 12.9 75.1927 13.736V27.682C75.1927 28.4927 74.99 29.126 74.5847 29.582C74.1793 30.038 73.584 30.266 72.7987 30.266ZM72.7987 7.618C71.912 7.618 71.2153 7.40267 70.7087 6.972C70.2273 6.516 69.9867 5.89533 69.9867 5.11C69.9867 4.29933 70.2273 3.67867 70.7087 3.248C71.2153 2.81733 71.912 2.602 72.7987 2.602C73.7107 2.602 74.4073 2.81733 74.8887 3.248C75.37 3.67867 75.6107 4.29933 75.6107 5.11C75.6107 5.89533 75.37 6.516 74.8887 6.972C74.4073 7.40267 73.7107 7.618 72.7987 7.618ZM86.9302 30.38C85.8409 30.38 84.6882 30.266 83.4722 30.038C82.2562 29.81 81.1669 29.4173 80.2042 28.86C79.7989 28.6067 79.5075 28.3153 79.3302 27.986C79.1782 27.6313 79.1149 27.2893 79.1402 26.96C79.1909 26.6053 79.3175 26.3013 79.5202 26.048C79.7482 25.7947 80.0269 25.63 80.3562 25.554C80.7109 25.478 81.0909 25.5413 81.4962 25.744C82.5095 26.2253 83.4595 26.5673 84.3462 26.77C85.2329 26.9473 86.1069 27.036 86.9682 27.036C88.1842 27.036 89.0835 26.8333 89.6662 26.428C90.2742 25.9973 90.5782 25.44 90.5782 24.756C90.5782 24.1733 90.3755 23.73 89.9702 23.426C89.5902 23.0967 89.0075 22.856 88.2222 22.704L84.4222 21.982C82.8515 21.678 81.6482 21.108 80.8122 20.272C80.0015 19.4107 79.5962 18.3087 79.5962 16.966C79.5962 15.75 79.9255 14.6987 80.5842 13.812C81.2682 12.9253 82.2055 12.2413 83.3962 11.76C84.5869 11.2787 85.9549 11.038 87.5002 11.038C88.6149 11.038 89.6535 11.1647 90.6162 11.418C91.6042 11.646 92.5542 12.0133 93.4662 12.52C93.8462 12.7227 94.0995 12.9887 94.2262 13.318C94.3782 13.6473 94.4162 13.9893 94.3402 14.344C94.2642 14.6733 94.1122 14.9773 93.8842 15.256C93.6562 15.5093 93.3649 15.674 93.0102 15.75C92.6809 15.8007 92.3009 15.7247 91.8702 15.522C91.0849 15.1167 90.3249 14.8253 89.5902 14.648C88.8809 14.4707 88.1969 14.382 87.5382 14.382C86.2969 14.382 85.3722 14.5973 84.7642 15.028C84.1815 15.4587 83.8902 16.0287 83.8902 16.738C83.8902 17.27 84.0675 17.7133 84.4222 18.068C84.7769 18.4227 85.3215 18.6633 86.0562 18.79L89.8562 19.512C91.5029 19.816 92.7442 20.3733 93.5802 21.184C94.4415 21.9947 94.8722 23.084 94.8722 24.452C94.8722 26.3013 94.1502 27.758 92.7062 28.822C91.2622 29.8607 89.3369 30.38 86.9302 30.38ZM105.494 30.304C104.86 30.304 104.316 30.152 103.86 29.848C103.404 29.5187 103.036 29.012 102.758 28.328L97.2478 14.268C97.0198 13.66 96.9438 13.128 97.0198 12.672C97.1211 12.1907 97.3618 11.8107 97.7418 11.532C98.1218 11.2533 98.6285 11.114 99.2618 11.114C99.8191 11.114 100.275 11.2533 100.63 11.532C100.984 11.7853 101.288 12.2793 101.542 13.014L106.14 25.668H105.266L110.016 12.71C110.218 12.1527 110.484 11.7473 110.814 11.494C111.168 11.2407 111.624 11.114 112.182 11.114C112.739 11.114 113.195 11.2533 113.55 11.532C113.904 11.7853 114.17 12.178 114.348 12.71L119.022 25.668H118.224L122.86 12.9C123.113 12.216 123.43 11.7473 123.81 11.494C124.215 11.2407 124.658 11.114 125.14 11.114C125.748 11.114 126.216 11.266 126.546 11.57C126.875 11.874 127.065 12.2667 127.116 12.748C127.166 13.204 127.078 13.7107 126.85 14.268L121.378 28.328C121.124 28.9867 120.757 29.4807 120.276 29.81C119.82 30.1393 119.275 30.304 118.642 30.304C118.008 30.304 117.451 30.1393 116.97 29.81C116.514 29.4807 116.159 28.9867 115.906 28.328L110.928 15.142H113.094L108.23 28.29C107.976 28.974 107.622 29.4807 107.166 29.81C106.71 30.1393 106.152 30.304 105.494 30.304ZM136.455 30.38C135.113 30.38 133.909 30.1267 132.845 29.62C131.807 29.088 130.983 28.3787 130.375 27.492C129.793 26.6053 129.501 25.6047 129.501 24.49C129.501 23.122 129.856 22.0453 130.565 21.26C131.275 20.4493 132.427 19.8667 134.023 19.512C135.619 19.1573 137.76 18.98 140.445 18.98H142.345V21.716H140.483C138.913 21.716 137.659 21.792 136.721 21.944C135.784 22.096 135.113 22.362 134.707 22.742C134.327 23.0967 134.137 23.6033 134.137 24.262C134.137 25.098 134.429 25.782 135.011 26.314C135.594 26.846 136.405 27.112 137.443 27.112C138.279 27.112 139.014 26.922 139.647 26.542C140.306 26.1367 140.825 25.592 141.205 24.908C141.585 24.224 141.775 23.4387 141.775 22.552V18.182C141.775 16.9153 141.497 16.0033 140.939 15.446C140.382 14.8887 139.445 14.61 138.127 14.61C137.393 14.61 136.595 14.6987 135.733 14.876C134.897 15.0533 134.011 15.3573 133.073 15.788C132.592 16.016 132.161 16.0793 131.781 15.978C131.427 15.8767 131.148 15.674 130.945 15.37C130.743 15.0407 130.641 14.686 130.641 14.306C130.641 13.926 130.743 13.5587 130.945 13.204C131.148 12.824 131.49 12.5453 131.971 12.368C133.137 11.8867 134.251 11.5447 135.315 11.342C136.405 11.1393 137.393 11.038 138.279 11.038C140.103 11.038 141.598 11.3167 142.763 11.874C143.954 12.4313 144.841 13.28 145.423 14.42C146.006 15.5347 146.297 16.9787 146.297 18.752V27.872C146.297 28.6573 146.107 29.2653 145.727 29.696C145.347 30.1013 144.803 30.304 144.093 30.304C143.384 30.304 142.827 30.1013 142.421 29.696C142.041 29.2653 141.851 28.6573 141.851 27.872V26.048H142.155C141.978 26.9347 141.623 27.7073 141.091 28.366C140.585 28.9993 139.939 29.4933 139.153 29.848C138.368 30.2027 137.469 30.38 136.455 30.38Z" fill="#435EBE"/>
</g>
<defs>
<clipPath id="clip0_126_95">
<rect width="160" height="34" fill="white"/>
</clipPath>
</defs>
</svg>
